<?xml version="1.0" encoding="UTF-8" standalone="no"?>
<svg width="858px" height="386px" viewBox="0 0 858 386" version="1.1" xmlns="http://www.w3.org/2000/svg" xmlns:xlink="http://www.w3.org/1999/xlink">
    <!-- Generator: Sketch 47.1 (45422) - http://www.bohemiancoding.com/sketch -->
    <title>Group</title>
    <desc>Created with Sketch.</desc>
    <defs></defs>
    <g id="Page-1" stroke="none" stroke-width="1" fill="none" fill-rule="evenodd">
        <g id="Artboard" transform="translate(-288.000000, -111.000000)">
            <g id="Group" transform="translate(288.000000, 111.000000)">
                <polygon id="Path-2" fill="#4541C6" points="341.491998 357.288908 599.638232 0.628490314 857.784466 357.288908"></polygon>
                <polygon id="Path-2-Copy-2" fill="#4541C6" points="0.491998499 357.288908 258.638232 0.628490314 516.784466 357.288908"></polygon>
                <polygon id="Path-2-Copy" fill="#706CF4" points="202.913319 357.288908 405.348892 77.599543 607.784466 357.288908"></polygon>
                <rect id="Rectangle-8" fill="#232176" x="87" y="308" width="669" height="78" rx="39"></rect>
                <path d="M392.037089,204.197696 C392.037089,203.659932 392.094706,203.333438 392.209941,203.218203 C392.325176,203.102968 392.65167,203.045352 393.189433,203.045352 L414.507792,203.045352 C415.045555,203.045352 415.372049,203.102968 415.487284,203.218203 C415.602519,203.333438 415.660136,203.659932 415.660136,204.197696 L415.660136,259.279727 C415.660136,263.658655 414.699859,267.499762 412.779277,270.803164 C410.858694,274.106566 408.361974,276.852958 405.289042,279.042422 C402.21611,281.231886 398.720702,282.864357 394.802714,283.939883 C390.884726,285.015409 386.966796,285.553164 383.048808,285.553164 C379.130819,285.553164 375.21289,285.015409 371.294902,283.939883 C367.376913,282.864357 363.881505,281.231886 360.808573,279.042422 C357.735641,276.852958 355.238922,274.106566 353.318339,270.803164 C351.397757,267.499762 350.43748,263.658655 350.43748,259.279727 L350.43748,204.197696 C350.43748,203.659932 350.495096,203.333438 350.610331,203.218203 C350.725566,203.102968 351.05206,203.045352 351.589823,203.045352 L372.908183,203.045352 C373.445946,203.045352 373.77244,203.102968 373.887675,203.218203 C374.00291,203.333438 374.060527,203.659932 374.060527,204.197696 L374.060527,252.711367 C374.060527,254.478303 374.329404,255.976335 374.867167,257.205508 C375.40493,258.434681 376.09633,259.433369 376.941386,260.201602 C377.786442,260.969835 378.746719,261.546001 379.822245,261.930117 C380.897772,262.314234 381.973282,262.506289 383.048808,262.506289 C384.201157,262.506289 385.315078,262.314234 386.390605,261.930117 C387.466131,261.546001 388.426408,260.969835 389.271464,260.201602 C390.11652,259.433369 390.788714,258.434681 391.288066,257.205508 C391.787417,255.976335 392.037089,254.478303 392.037089,252.711367 L392.037089,204.197696 Z M449.193339,285.092227 C440.589129,285.092227 433.963219,282.998823 429.315409,278.811953 C424.6676,274.625084 422.34373,268.921039 422.34373,261.699649 L422.34373,260.662539 C422.34373,260.124776 422.401346,259.798282 422.516581,259.683047 C422.631816,259.567812 422.95831,259.510196 423.496073,259.510196 L439.398417,259.510196 C439.859357,259.510196 440.14744,259.587018 440.262675,259.740664 C440.37791,259.894311 440.473938,260.2016 440.550761,260.662539 C440.704408,262.967238 441.453423,264.830175 442.797831,266.251407 C444.142239,267.672638 446.043587,268.383242 448.501933,268.383242 C450.960278,268.383242 452.919243,267.711049 454.378886,266.366641 C455.838529,265.022233 456.568339,263.159296 456.568339,260.777774 C456.568339,258.473075 455.819323,256.552521 454.321269,255.016055 C452.823214,253.479589 450.614578,252.711367 447.695292,252.711367 L443.777323,252.711367 C443.162737,252.711367 442.797832,252.653751 442.682597,252.538516 C442.567362,252.423281 442.509745,252.096787 442.509745,251.559024 L442.509745,240.150821 C442.509745,239.689881 442.567362,239.401798 442.682597,239.286563 C442.797832,239.171328 443.162737,239.113711 443.777323,239.113711 L447.234355,239.113711 C449.615877,239.113711 451.517225,238.460723 452.938456,237.154727 C454.359687,235.848731 455.070292,233.966588 455.070292,231.508242 C455.070292,229.280367 454.398098,227.551868 453.053691,226.322696 C451.709283,225.093523 449.923168,224.478946 447.695292,224.478946 C445.697886,224.478946 444.027005,225.055112 442.682597,226.207461 C441.338189,227.359811 440.550762,228.896254 440.320292,230.816836 C440.243469,231.354599 440.147441,231.681093 440.032206,231.796328 C439.916971,231.911563 439.667299,231.96918 439.283183,231.96918 L424.99412,231.96918 C424.533181,231.96918 424.245097,231.911563 424.129862,231.796328 C424.014628,231.681093 423.957011,231.354599 423.957011,230.816836 C423.957011,227.590258 424.513972,224.594194 425.627909,221.828555 C426.741847,219.062916 428.374318,216.68143 430.52537,214.684024 C432.676423,212.686618 435.26917,211.111764 438.303691,209.959414 C441.338211,208.807065 444.814413,208.230899 448.732402,208.230899 C452.65039,208.230899 456.145798,208.730243 459.21873,209.728946 C462.291662,210.727649 464.884409,212.091242 466.99705,213.819766 C469.109691,215.54829 470.722956,217.584077 471.836894,219.927188 C472.950832,222.270298 473.507792,224.786224 473.507792,227.475039 C473.507792,231.085734 472.662749,234.081798 470.972636,236.463321 C469.282523,238.844843 467.36197,240.688574 465.210917,241.994571 C464.903624,242.071394 464.74998,242.30186 464.74998,242.685977 C464.74998,242.839623 464.903624,242.993268 465.210917,243.146914 C468.437496,244.68338 471.08786,246.949634 473.162089,249.945742 C475.236318,252.941851 476.273417,256.744548 476.273417,261.353946 C476.273417,264.657348 475.716457,267.749439 474.602519,270.630313 C473.488581,273.511187 471.817699,276.027112 469.589823,278.178164 C467.361948,280.329217 464.557939,282.019304 461.177714,283.248477 C457.797489,284.47765 453.802737,285.092227 449.193339,285.092227 Z" id="U3" fill="#FFFFFF"></path>
                <path d="M147.147716,323.201172 C147.147716,322.904946 147.179454,322.725098 147.242931,322.661621 C147.306408,322.598144 147.486256,322.566406 147.782482,322.566406 L159.525646,322.566406 C159.821871,322.566406 160.00172,322.598144 160.065197,322.661621 C160.128674,322.725098 160.160411,322.904946 160.160411,323.201172 L160.160411,353.542969 C160.160411,355.95509 159.631445,358.070954 158.573497,359.890625 C157.515549,361.710296 156.140238,363.223139 154.447521,364.429199 C152.754804,365.63526 150.829368,366.534502 148.671154,367.126953 C146.51294,367.719404 144.354758,368.015625 142.196544,368.015625 C140.03833,368.015625 137.880149,367.719404 135.721935,367.126953 C133.563721,366.534502 131.638285,365.63526 129.945568,364.429199 C128.252851,363.223139 126.877539,361.710296 125.819591,359.890625 C124.761643,358.070954 124.232677,355.95509 124.232677,353.542969 L124.232677,323.201172 C124.232677,322.904946 124.264415,322.725098 124.327892,322.661621 C124.391369,322.598144 124.571217,322.566406 124.867443,322.566406 L136.610607,322.566406 C136.906832,322.566406 137.086681,322.598144 137.150158,322.661621 C137.213634,322.725098 137.245372,322.904946 137.245372,323.201172 L137.245372,349.924805 C137.245372,350.898117 137.393483,351.723304 137.689708,352.400391 C137.985934,353.077477 138.366789,353.627602 138.832286,354.050781 C139.297784,354.47396 139.82675,354.79134 140.419201,355.00293 C141.011651,355.214519 141.604093,355.320312 142.196544,355.320312 C142.831313,355.320312 143.444914,355.214519 144.037365,355.00293 C144.629815,354.79134 145.158782,354.47396 145.624279,354.050781 C146.089776,353.627602 146.460052,353.077477 146.735118,352.400391 C147.010185,351.723304 147.147716,350.898117 147.147716,349.924805 L147.147716,323.201172 Z M165.492443,367 C165.196217,367 165.016369,366.957683 164.952892,366.873047 C164.889415,366.788411 164.857677,366.619142 164.857677,366.365234 L164.857677,339.387695 C164.857677,339.133788 164.889415,338.964519 164.952892,338.879883 C165.016369,338.795247 165.196217,338.75293 165.492443,338.75293 L175.648693,338.75293 C175.944918,338.75293 176.124767,338.795247 176.188243,338.879883 C176.25172,338.964519 176.283458,339.133788 176.283458,339.387695 L176.283458,341.926758 C176.283458,342.011394 176.368093,342.053711 176.537365,342.053711 C176.664318,342.053711 176.748953,342.032552 176.791271,341.990234 C178.018491,340.847651 179.298588,339.91667 180.631603,339.197266 C181.964617,338.477861 183.604412,338.118164 185.551036,338.118164 C187.286071,338.118164 188.724859,338.382647 189.867443,338.911621 C191.010027,339.440595 191.930428,340.181148 192.628673,341.133301 C193.326919,342.085454 193.824147,343.217441 194.120372,344.529297 C194.416598,345.841152 194.564708,347.27994 194.564708,348.845703 L194.564708,366.365234 C194.564708,366.619142 194.53297,366.788411 194.469493,366.873047 C194.406017,366.957683 194.226168,367 193.929943,367 L183.773693,367 C183.477467,367 183.297619,366.957683 183.234142,366.873047 C183.170665,366.788411 183.138927,366.619142 183.138927,366.365234 L183.138927,351.003906 C183.138927,349.945958 182.874444,349.163088 182.34547,348.655273 C181.816496,348.147458 181.065364,347.893555 180.092052,347.893555 C179.034104,347.893555 178.134862,348.263831 177.394298,349.004395 C176.653735,349.744958 176.283458,350.686518 176.283458,351.829102 L176.283458,366.365234 C176.283458,366.619142 176.25172,366.788411 176.188243,366.873047 C176.124767,366.957683 175.944918,367 175.648693,367 L165.492443,367 Z M198.881115,339.387695 C198.881115,339.133788 198.912853,338.964519 198.976329,338.879883 C199.039806,338.795247 199.219655,338.75293 199.51588,338.75293 L209.67213,338.75293 C209.968356,338.75293 210.148204,338.795247 210.211681,338.879883 C210.275158,338.964519 210.306896,339.133788 210.306896,339.387695 L210.306896,366.365234 C210.306896,366.619142 210.275158,366.788411 210.211681,366.873047 C210.148204,366.957683 209.968356,367 209.67213,367 L199.51588,367 C199.219655,367 199.039806,366.957683 198.976329,366.873047 C198.912853,366.788411 198.881115,366.619142 198.881115,366.365234 L198.881115,339.387695 Z M204.594005,333.928711 C203.789965,333.928711 203.028254,333.7806 202.308849,333.484375 C201.589444,333.18815 200.954685,332.775556 200.404552,332.246582 C199.854419,331.717608 199.420667,331.082849 199.103283,330.342285 C198.785898,329.601722 198.627208,328.787114 198.627208,327.898438 C198.627208,326.205721 199.187912,324.766933 200.309337,323.582031 C201.430762,322.397129 202.85897,321.804688 204.594005,321.804688 C205.440364,321.804688 206.233813,321.973957 206.974376,322.3125 C207.71494,322.651043 208.349699,323.095375 208.878673,323.645508 C209.407647,324.195641 209.820241,324.8304 210.116466,325.549805 C210.412692,326.269209 210.560802,327.03092 210.560802,327.834961 C210.560802,328.639001 210.402112,329.411292 210.084728,330.151855 C209.767343,330.892419 209.344171,331.537758 208.815197,332.087891 C208.286223,332.638024 207.651463,333.082355 206.9109,333.420898 C206.170336,333.759442 205.398046,333.928711 204.594005,333.928711 Z M227.128185,349.416992 C227.170503,349.543946 227.297455,349.607422 227.509044,349.607422 C227.678316,349.607422 227.805268,349.543946 227.889904,349.416992 L232.587169,339.387695 C232.714123,339.133788 232.819916,338.964519 232.904552,338.879883 C232.989188,338.795247 233.158457,338.75293 233.412365,338.75293 L243.187755,338.75293 C243.568616,338.75293 243.759044,338.837564 243.759044,339.006836 L243.632091,339.387695 L228.33424,367.634766 C228.12265,368.057945 227.741794,368.269531 227.191661,368.269531 C226.683846,368.269531 226.32415,368.057945 226.11256,367.634766 L211.385997,339.387695 L211.259044,339.006836 C211.259044,338.837564 211.449472,338.75293 211.830333,338.75293 L221.605724,338.75293 C221.859631,338.75293 222.028901,338.795247 222.113536,338.879883 C222.198172,338.964519 222.303966,339.133788 222.430919,339.387695 L227.128185,349.416992 Z M258.231701,345.862305 C257.21607,345.862305 256.263932,346.169105 255.375255,346.782715 C254.486579,347.396325 253.978771,348.189774 253.851818,349.163086 C253.851818,349.459311 253.883556,349.63916 253.947033,349.702637 C254.010509,349.766114 254.190358,349.797852 254.486583,349.797852 L262.040294,349.797852 C262.378838,349.797852 262.579845,349.766114 262.643322,349.702637 C262.706799,349.63916 262.717378,349.459311 262.67506,349.163086 C262.548106,348.147456 262.061457,347.343427 261.215099,346.750977 C260.368741,346.158526 259.374284,345.862305 258.231701,345.862305 Z M272.577404,353.923828 C272.577404,355.024094 272.535086,355.722329 272.450451,356.018555 C272.365815,356.31478 272.154228,356.462891 271.815685,356.462891 L254.994396,356.462891 C254.69817,356.462891 254.507743,356.494629 254.423107,356.558105 C254.338471,356.621582 254.296154,356.780272 254.296154,357.03418 C254.465425,357.880538 255.089605,358.63167 256.168712,359.287598 C257.247819,359.943525 258.739504,360.271484 260.64381,360.271484 C261.997983,360.271484 263.341557,360.102215 264.674572,359.763672 C266.007586,359.425129 267.224208,358.980797 268.324474,358.430664 C268.493746,358.346028 268.620698,358.303711 268.705333,358.303711 C268.874605,358.303711 268.95924,358.515297 268.95924,358.938477 L268.95924,364.841797 C268.95924,365.011069 268.927502,365.116862 268.864025,365.15918 C268.800548,365.201498 268.663017,365.307291 268.451427,365.476562 C267.351161,366.280603 265.96527,366.862466 264.293712,367.222168 C262.622154,367.58187 260.855408,367.761719 258.993419,367.761719 C256.835205,367.761719 254.803976,367.391443 252.899669,366.650879 C250.995363,365.910315 249.334409,364.873542 247.916759,363.540527 C246.499109,362.207513 245.377701,360.631194 244.552501,358.811523 C243.727302,356.991853 243.314708,355.00294 243.314708,352.844727 C243.314708,350.686513 243.684985,348.6976 244.425548,346.87793 C245.166112,345.058259 246.192306,343.49252 247.504161,342.180664 C248.816017,340.868809 250.381757,339.842614 252.201427,339.102051 C254.021098,338.361487 256.01001,337.991211 258.168224,337.991211 C262.653923,337.991211 266.176837,339.387681 268.737072,342.180664 C271.297306,344.973647 272.577404,348.887996 272.577404,353.923828 Z M295.873302,338.118164 C296.169528,338.118164 296.349376,338.160481 296.412853,338.245117 C296.47633,338.329753 296.508068,338.499022 296.508068,338.75293 L296.508068,347.830078 C296.508068,348.253257 296.381116,348.464844 296.127208,348.464844 C295.957937,348.464844 295.682874,348.443685 295.302013,348.401367 C294.921152,348.359049 294.434503,348.337891 293.842052,348.337891 C291.345295,348.337891 289.610286,349.089022 288.636974,350.591309 C287.663662,352.093595 287.177013,354.262356 287.177013,357.097656 L287.177013,366.365234 C287.177013,366.619142 287.145275,366.788411 287.081798,366.873047 C287.018321,366.957683 286.838473,367 286.542247,367 L277.020763,367 C276.724538,367 276.544689,366.957683 276.481212,366.873047 C276.417735,366.788411 276.385997,366.619142 276.385997,366.365234 L276.385997,339.387695 C276.385997,339.133788 276.417735,338.964519 276.481212,338.879883 C276.544689,338.795247 276.724538,338.75293 277.020763,338.75293 L286.542247,338.75293 C286.838473,338.75293 287.018321,338.795247 287.081798,338.879883 C287.145275,338.964519 287.177013,339.133788 287.177013,339.387695 L287.177013,342.498047 C287.177013,342.582683 287.261648,342.625 287.430919,342.625 C287.557873,342.625 287.642508,342.603841 287.684826,342.561523 C288.065687,342.053708 288.510018,341.535322 289.017833,341.006348 C289.525648,340.477374 290.107511,340.001304 290.763439,339.578125 C291.419367,339.154946 292.170498,338.805828 293.016857,338.530762 C293.863215,338.255695 294.815354,338.118164 295.873302,338.118164 Z M324.437755,358.494141 C324.437755,359.93295 324.130955,361.223627 323.517345,362.366211 C322.903735,363.508795 322.036231,364.482092 320.914806,365.286133 C319.793381,366.090173 318.449807,366.703774 316.884044,367.126953 C315.318281,367.550132 313.583273,367.761719 311.678966,367.761719 C308.378168,367.761719 305.680441,367.232753 303.585704,366.174805 C301.490967,365.116857 299.830014,363.699228 298.602794,361.921875 C298.433523,361.710285 298.370047,361.551596 298.412365,361.445801 C298.454683,361.340006 298.581634,361.244792 298.793224,361.160156 L305.966076,357.03418 C306.135347,356.949544 306.304616,357.034178 306.473888,357.288086 C306.939385,358.007491 307.48951,358.705726 308.124279,359.382812 C308.759047,360.059899 309.690028,360.398438 310.917247,360.398438 C311.509698,360.398438 312.049244,360.260906 312.5359,359.98584 C313.022556,359.710773 313.26588,359.277021 313.26588,358.68457 C313.26588,358.092119 312.916763,357.658367 312.218517,357.383301 C311.520271,357.108234 310.642188,356.854331 309.58424,356.621582 C308.526292,356.388833 307.394304,356.103192 306.188243,355.764648 C304.982183,355.426105 303.850195,354.907718 302.792247,354.209473 C301.734299,353.511227 300.856216,352.580247 300.15797,351.416504 C299.459724,350.252761 299.110607,348.71876 299.110607,346.814453 C299.110607,345.587233 299.37509,344.434087 299.904064,343.35498 C300.433038,342.275874 301.226487,341.344893 302.284435,340.562012 C303.342383,339.77913 304.63306,339.15495 306.156505,338.689453 C307.67995,338.223956 309.436118,337.991211 311.42506,337.991211 C314.218043,337.991211 316.704183,338.414384 318.883556,339.260742 C321.062929,340.107101 322.745041,341.418936 323.929943,343.196289 C324.099214,343.492515 324.01458,343.72526 323.676036,343.894531 L316.820568,347.893555 C316.56666,348.062826 316.355074,348.020509 316.185802,347.766602 C315.847259,347.174151 315.339451,346.613447 314.662365,346.084473 C313.985278,345.555499 313.033139,345.291016 311.805919,345.291016 C311.213468,345.291016 310.695082,345.428547 310.250743,345.703613 C309.806405,345.97868 309.58424,346.391273 309.58424,346.941406 C309.58424,347.449221 309.954516,347.819498 310.695079,348.052246 C311.435643,348.284995 312.356044,348.50716 313.45631,348.71875 C314.556576,348.93034 315.74146,349.194823 317.010997,349.512207 C318.280535,349.829591 319.465419,350.32682 320.565685,351.003906 C321.665951,351.680993 322.586352,352.611973 323.326915,353.796875 C324.067479,354.981777 324.437755,356.547516 324.437755,358.494141 Z M345.194591,367 C344.898366,367 344.718517,366.957683 344.65504,366.873047 C344.591563,366.788411 344.559826,366.619142 344.559826,366.365234 L344.559826,364.524414 C344.559826,364.439778 344.475191,364.397461 344.305919,364.397461 C344.178966,364.397461 344.094331,364.41862 344.052013,364.460938 C343.205655,365.391932 342.17946,366.174802 340.9734,366.80957 C339.767339,367.444339 338.19102,367.761719 336.244396,367.761719 C332.943598,367.761719 330.446878,366.904794 328.754161,365.190918 C327.061445,363.477042 326.215099,361.160171 326.215099,358.240234 C326.215099,356.759107 326.500741,355.404954 327.072033,354.177734 C327.643324,352.950515 328.415615,351.903162 329.388927,351.035645 C330.362239,350.168127 331.504806,349.50163 332.816661,349.036133 C334.128517,348.570636 335.524987,348.337891 337.006115,348.337891 C338.487242,348.337891 339.777919,348.486001 340.878185,348.782227 C341.978451,349.078452 342.867114,349.459308 343.544201,349.924805 C343.628836,349.967123 343.713471,349.988281 343.798107,349.988281 C343.967378,349.988281 344.052013,349.819012 344.052013,349.480469 L344.052013,349.036133 C344.052013,347.639641 343.554785,346.655765 342.560314,346.084473 C341.565843,345.513181 340.20111,345.227539 338.466076,345.227539 C336.900312,345.227539 335.567318,345.439125 334.467052,345.862305 C333.366786,346.285484 332.583916,346.602864 332.118419,346.814453 C331.864512,346.941407 331.695243,347.004883 331.610607,347.004883 C331.483653,347.004883 331.420177,346.835614 331.420177,346.49707 L331.420177,340.657227 C331.420177,340.361001 331.589446,340.107097 331.92799,339.895508 C332.308851,339.6416 332.869555,339.398276 333.610118,339.165527 C334.350682,338.932779 335.144131,338.731772 335.99049,338.5625 C336.836848,338.393228 337.714932,338.255697 338.624767,338.149902 C339.534602,338.044108 340.34921,337.991211 341.068615,337.991211 C343.988551,337.991211 346.432374,338.350908 348.400158,339.070312 C350.367941,339.789717 351.838466,340.889967 352.811779,342.371094 C353.19264,342.921227 353.520599,343.503089 353.795665,344.116699 C354.070732,344.730309 354.314056,345.460282 354.525646,346.306641 C354.737235,347.152999 354.895925,348.147455 355.00172,349.290039 C355.107515,350.432623 355.160411,351.786776 355.160411,353.352539 L355.160411,366.365234 C355.160411,366.619142 355.128674,366.788411 355.065197,366.873047 C355.00172,366.957683 354.821871,367 354.525646,367 L345.194591,367 Z M336.625255,356.970703 C336.625255,357.901697 336.974373,358.631671 337.672618,359.160645 C338.370864,359.689619 339.270106,359.954102 340.370372,359.954102 C341.597592,359.954102 342.528572,359.689619 343.163341,359.160645 C343.79811,358.631671 344.11549,357.901697 344.11549,356.970703 C344.11549,356.082027 343.79811,355.373212 343.163341,354.844238 C342.528572,354.315264 341.597592,354.050781 340.370372,354.050781 C339.270106,354.050781 338.370864,354.315264 337.672618,354.844238 C336.974373,355.373212 336.625255,356.082027 336.625255,356.970703 Z M359.476818,320.027344 C359.476818,319.773436 359.508556,319.604167 359.572033,319.519531 C359.635509,319.434895 359.815358,319.392578 360.111583,319.392578 L370.267833,319.392578 C370.564059,319.392578 370.743907,319.434895 370.807384,319.519531 C370.870861,319.604167 370.902599,319.773436 370.902599,320.027344 L370.902599,366.365234 C370.902599,366.619142 370.870861,366.788411 370.807384,366.873047 C370.743907,366.957683 370.564059,367 370.267833,367 L360.111583,367 C359.815358,367 359.635509,366.957683 359.572033,366.873047 C359.508556,366.788411 359.476818,366.619142 359.476818,366.365234 L359.476818,320.027344 Z M414.003185,323.201172 C414.003185,322.904946 414.034923,322.725098 414.0984,322.661621 C414.161877,322.598144 414.341725,322.566406 414.637951,322.566406 L426.381115,322.566406 C426.67734,322.566406 426.857188,322.598144 426.920665,322.661621 C426.984142,322.725098 427.01588,322.904946 427.01588,323.201172 L427.01588,353.542969 C427.01588,355.95509 426.486914,358.070954 425.428966,359.890625 C424.371018,361.710296 422.995706,363.223139 421.30299,364.429199 C419.610273,365.63526 417.684836,366.534502 415.526622,367.126953 C413.368408,367.719404 411.210227,368.015625 409.052013,368.015625 C406.893799,368.015625 404.735618,367.719404 402.577404,367.126953 C400.41919,366.534502 398.493753,365.63526 396.801036,364.429199 C395.10832,363.223139 393.733008,361.710296 392.67506,359.890625 C391.617112,358.070954 391.088146,355.95509 391.088146,353.542969 L391.088146,323.201172 C391.088146,322.904946 391.119884,322.725098 391.183361,322.661621 C391.246838,322.598144 391.426686,322.566406 391.722911,322.566406 L403.466076,322.566406 C403.762301,322.566406 403.942149,322.598144 404.005626,322.661621 C404.069103,322.725098 404.100841,322.904946 404.100841,323.201172 L404.100841,349.924805 C404.100841,350.898117 404.248952,351.723304 404.545177,352.400391 C404.841403,353.077477 405.222258,353.627602 405.687755,354.050781 C406.153252,354.47396 406.682218,354.79134 407.274669,355.00293 C407.86712,355.214519 408.459562,355.320312 409.052013,355.320312 C409.686782,355.320312 410.300382,355.214519 410.892833,355.00293 C411.485284,354.79134 412.01425,354.47396 412.479747,354.050781 C412.945245,353.627602 413.315521,353.077477 413.590587,352.400391 C413.865654,351.723304 414.003185,350.898117 414.003185,349.924805 L414.003185,323.201172 Z M456.278576,358.494141 C456.278576,359.93295 455.971775,361.223627 455.358165,362.366211 C454.744556,363.508795 453.877051,364.482092 452.755626,365.286133 C451.634201,366.090173 450.290628,366.703774 448.724865,367.126953 C447.159102,367.550132 445.424093,367.761719 443.519786,367.761719 C440.218989,367.761719 437.521262,367.232753 435.426525,366.174805 C433.331788,365.116857 431.670834,363.699228 430.443615,361.921875 C430.274343,361.710285 430.210867,361.551596 430.253185,361.445801 C430.295503,361.340006 430.422455,361.244792 430.634044,361.160156 L437.806896,357.03418 C437.976168,356.949544 438.145437,357.034178 438.314708,357.288086 C438.780205,358.007491 439.33033,358.705726 439.965099,359.382812 C440.599868,360.059899 441.530848,360.398438 442.758068,360.398438 C443.350519,360.398438 443.890064,360.260906 444.37672,359.98584 C444.863376,359.710773 445.106701,359.277021 445.106701,358.68457 C445.106701,358.092119 444.757583,357.658367 444.059337,357.383301 C443.361092,357.108234 442.483008,356.854331 441.42506,356.621582 C440.367112,356.388833 439.235125,356.103192 438.029064,355.764648 C436.823003,355.426105 435.691016,354.907718 434.633068,354.209473 C433.57512,353.511227 432.697036,352.580247 431.99879,351.416504 C431.300545,350.252761 430.951427,348.71876 430.951427,346.814453 C430.951427,345.587233 431.21591,344.434087 431.744884,343.35498 C432.273858,342.275874 433.067307,341.344893 434.125255,340.562012 C435.183203,339.77913 436.47388,339.15495 437.997326,338.689453 C439.520771,338.223956 441.276938,337.991211 443.26588,337.991211 C446.058863,337.991211 448.545003,338.414384 450.724376,339.260742 C452.903749,340.107101 454.585861,341.418936 455.770763,343.196289 C455.940035,343.492515 455.8554,343.72526 455.516857,343.894531 L448.661388,347.893555 C448.407481,348.062826 448.195894,348.020509 448.026622,347.766602 C447.688079,347.174151 447.180272,346.613447 446.503185,346.084473 C445.826098,345.555499 444.873959,345.291016 443.64674,345.291016 C443.054289,345.291016 442.535902,345.428547 442.091564,345.703613 C441.647226,345.97868 441.42506,346.391273 441.42506,346.941406 C441.42506,347.449221 441.795336,347.819498 442.5359,348.052246 C443.276463,348.284995 444.196864,348.50716 445.29713,348.71875 C446.397396,348.93034 447.58228,349.194823 448.851818,349.512207 C450.121355,349.829591 451.306239,350.32682 452.406505,351.003906 C453.506771,351.680993 454.427172,352.611973 455.167736,353.796875 C455.908299,354.981777 456.278576,356.547516 456.278576,358.494141 Z M473.607677,345.862305 C472.592047,345.862305 471.639908,346.169105 470.751232,346.782715 C469.862555,347.396325 469.354748,348.189774 469.227794,349.163086 C469.227794,349.459311 469.259532,349.63916 469.323009,349.702637 C469.386486,349.766114 469.566334,349.797852 469.86256,349.797852 L477.416271,349.797852 C477.754814,349.797852 477.955821,349.766114 478.019298,349.702637 C478.082775,349.63916 478.093354,349.459311 478.051036,349.163086 C477.924083,348.147456 477.437434,347.343427 476.591076,346.750977 C475.744717,346.158526 474.750261,345.862305 473.607677,345.862305 Z M487.95338,353.923828 C487.95338,355.024094 487.911063,355.722329 487.826427,356.018555 C487.741791,356.31478 487.530205,356.462891 487.191661,356.462891 L470.370372,356.462891 C470.074147,356.462891 469.883719,356.494629 469.799083,356.558105 C469.714448,356.621582 469.67213,356.780272 469.67213,357.03418 C469.841402,357.880538 470.465582,358.63167 471.544689,359.287598 C472.623796,359.943525 474.11548,360.271484 476.019786,360.271484 C477.37396,360.271484 478.717534,360.102215 480.050548,359.763672 C481.383563,359.425129 482.600185,358.980797 483.700451,358.430664 C483.869722,358.346028 483.996674,358.303711 484.08131,358.303711 C484.250582,358.303711 484.335216,358.515297 484.335216,358.938477 L484.335216,364.841797 C484.335216,365.011069 484.303478,365.116862 484.240001,365.15918 C484.176524,365.201498 484.038993,365.307291 483.827404,365.476562 C482.727138,366.280603 481.341247,366.862466 479.669689,367.222168 C477.998131,367.58187 476.231384,367.761719 474.369396,367.761719 C472.211182,367.761719 470.179952,367.391443 468.275646,366.650879 C466.371339,365.910315 464.710386,364.873542 463.292736,363.540527 C461.875085,362.207513 460.753677,360.631194 459.928478,358.811523 C459.103278,356.991853 458.690685,355.00294 458.690685,352.844727 C458.690685,350.686513 459.060961,348.6976 459.801525,346.87793 C460.542088,345.058259 461.568283,343.49252 462.880138,342.180664 C464.191994,340.868809 465.757733,339.842614 467.577404,339.102051 C469.397074,338.361487 471.385987,337.991211 473.544201,337.991211 C478.0299,337.991211 481.552814,339.387681 484.113048,342.180664 C486.673282,344.973647 487.95338,348.887996 487.95338,353.923828 Z M511.249279,338.118164 C511.545504,338.118164 511.725353,338.160481 511.788829,338.245117 C511.852306,338.329753 511.884044,338.499022 511.884044,338.75293 L511.884044,347.830078 C511.884044,348.253257 511.757092,348.464844 511.503185,348.464844 C511.333913,348.464844 511.058851,348.443685 510.67799,348.401367 C510.297128,348.359049 509.81048,348.337891 509.218029,348.337891 C506.721271,348.337891 504.986263,349.089022 504.012951,350.591309 C503.039638,352.093595 502.55299,354.262356 502.55299,357.097656 L502.55299,366.365234 C502.55299,366.619142 502.521252,366.788411 502.457775,366.873047 C502.394298,366.957683 502.214449,367 501.918224,367 L492.39674,367 C492.100514,367 491.920666,366.957683 491.857189,366.873047 C491.793712,366.788411 491.761974,366.619142 491.761974,366.365234 L491.761974,339.387695 C491.761974,339.133788 491.793712,338.964519 491.857189,338.879883 C491.920666,338.795247 492.100514,338.75293 492.39674,338.75293 L501.918224,338.75293 C502.214449,338.75293 502.394298,338.795247 502.457775,338.879883 C502.521252,338.964519 502.55299,339.133788 502.55299,339.387695 L502.55299,342.498047 C502.55299,342.582683 502.637624,342.625 502.806896,342.625 C502.93385,342.625 503.018484,342.603841 503.060802,342.561523 C503.441663,342.053708 503.885995,341.535322 504.39381,341.006348 C504.901625,340.477374 505.483488,340.001304 506.139415,339.578125 C506.795343,339.154946 507.546475,338.805828 508.392833,338.530762 C509.239192,338.255695 510.191331,338.118164 511.249279,338.118164 Z M539.813732,358.494141 C539.813732,359.93295 539.506931,361.223627 538.893322,362.366211 C538.279712,363.508795 537.412207,364.482092 536.290783,365.286133 C535.169358,366.090173 533.825784,366.703774 532.260021,367.126953 C530.694258,367.550132 528.959249,367.761719 527.054943,367.761719 C523.754145,367.761719 521.056418,367.232753 518.961681,366.174805 C516.866944,365.116857 515.205991,363.699228 513.978771,361.921875 C513.809499,361.710285 513.746023,361.551596 513.788341,361.445801 C513.830659,361.340006 513.957611,361.244792 514.169201,361.160156 L521.342052,357.03418 C521.511324,356.949544 521.680593,357.034178 521.849865,357.288086 C522.315362,358.007491 522.865486,358.705726 523.500255,359.382812 C524.135024,360.059899 525.066004,360.398438 526.293224,360.398438 C526.885675,360.398438 527.42522,360.260906 527.911876,359.98584 C528.398532,359.710773 528.641857,359.277021 528.641857,358.68457 C528.641857,358.092119 528.292739,357.658367 527.594493,357.383301 C526.896248,357.108234 526.018164,356.854331 524.960216,356.621582 C523.902268,356.388833 522.770281,356.103192 521.56422,355.764648 C520.358159,355.426105 519.226172,354.907718 518.168224,354.209473 C517.110276,353.511227 516.232192,352.580247 515.533947,351.416504 C514.835701,350.252761 514.486583,348.71876 514.486583,346.814453 C514.486583,345.587233 514.751066,344.434087 515.28004,343.35498 C515.809014,342.275874 516.602463,341.344893 517.660411,340.562012 C518.718359,339.77913 520.009037,339.15495 521.532482,338.689453 C523.055927,338.223956 524.812094,337.991211 526.801036,337.991211 C529.594019,337.991211 532.08016,338.414384 534.259533,339.260742 C536.438905,340.107101 538.121018,341.418936 539.305919,343.196289 C539.475191,343.492515 539.390556,343.72526 539.052013,343.894531 L532.196544,347.893555 C531.942637,348.062826 531.73105,348.020509 531.561779,347.766602 C531.223235,347.174151 530.715428,346.613447 530.038341,346.084473 C529.361254,345.555499 528.409116,345.291016 527.181896,345.291016 C526.589445,345.291016 526.071058,345.428547 525.62672,345.703613 C525.182382,345.97868 524.960216,346.391273 524.960216,346.941406 C524.960216,347.449221 525.330492,347.819498 526.071056,348.052246 C526.81162,348.284995 527.732021,348.50716 528.832286,348.71875 C529.932552,348.93034 531.117436,349.194823 532.386974,349.512207 C533.656512,349.829591 534.841396,350.32682 535.941661,351.003906 C537.041927,351.680993 537.962328,352.611973 538.702892,353.796875 C539.443456,354.981777 539.813732,356.547516 539.813732,358.494141 Z M581.962169,323.201172 C581.962169,322.904946 581.993907,322.725098 582.057384,322.661621 C582.120861,322.598144 582.300709,322.566406 582.596935,322.566406 L594.340099,322.566406 C594.636324,322.566406 594.816173,322.598144 594.87965,322.661621 C594.943127,322.725098 594.974865,322.904946 594.974865,323.201172 L594.974865,353.542969 C594.974865,355.95509 594.445899,358.070954 593.387951,359.890625 C592.330003,361.710296 590.954691,363.223139 589.261974,364.429199 C587.569257,365.63526 585.643821,366.534502 583.485607,367.126953 C581.327393,367.719404 579.169211,368.015625 577.010997,368.015625 C574.852783,368.015625 572.694602,367.719404 570.536388,367.126953 C568.378174,366.534502 566.452738,365.63526 564.760021,364.429199 C563.067304,363.223139 561.691992,361.710296 560.634044,359.890625 C559.576096,358.070954 559.04713,355.95509 559.04713,353.542969 L559.04713,323.201172 C559.04713,322.904946 559.078868,322.725098 559.142345,322.661621 C559.205822,322.598144 559.38567,322.566406 559.681896,322.566406 L571.42506,322.566406 C571.721285,322.566406 571.901134,322.598144 571.964611,322.661621 C572.028088,322.725098 572.059826,322.904946 572.059826,323.201172 L572.059826,349.924805 C572.059826,350.898117 572.207936,351.723304 572.504161,352.400391 C572.800387,353.077477 573.181242,353.627602 573.64674,354.050781 C574.112237,354.47396 574.641203,354.79134 575.233654,355.00293 C575.826105,355.214519 576.418547,355.320312 577.010997,355.320312 C577.645766,355.320312 578.259367,355.214519 578.851818,355.00293 C579.444269,354.79134 579.973235,354.47396 580.438732,354.050781 C580.904229,353.627602 581.274505,353.077477 581.549572,352.400391 C581.824638,351.723304 581.962169,350.898117 581.962169,349.924805 L581.962169,323.201172 Z M600.306896,367 C600.01067,367 599.830822,366.957683 599.767345,366.873047 C599.703868,366.788411 599.67213,366.619142 599.67213,366.365234 L599.67213,339.387695 C599.67213,339.133788 599.703868,338.964519 599.767345,338.879883 C599.830822,338.795247 600.01067,338.75293 600.306896,338.75293 L610.463146,338.75293 C610.759371,338.75293 610.93922,338.795247 611.002697,338.879883 C611.066174,338.964519 611.097911,339.133788 611.097911,339.387695 L611.097911,341.926758 C611.097911,342.011394 611.182546,342.053711 611.351818,342.053711 C611.478771,342.053711 611.563406,342.032552 611.605724,341.990234 C612.832944,340.847651 614.113042,339.91667 615.446056,339.197266 C616.77907,338.477861 618.418865,338.118164 620.36549,338.118164 C622.100524,338.118164 623.539312,338.382647 624.681896,338.911621 C625.82448,339.440595 626.744881,340.181148 627.443126,341.133301 C628.141372,342.085454 628.6386,343.217441 628.934826,344.529297 C629.231051,345.841152 629.379161,347.27994 629.379161,348.845703 L629.379161,366.365234 C629.379161,366.619142 629.347424,366.788411 629.283947,366.873047 C629.22047,366.957683 629.040621,367 628.744396,367 L618.588146,367 C618.29192,367 618.112072,366.957683 618.048595,366.873047 C617.985118,366.788411 617.95338,366.619142 617.95338,366.365234 L617.95338,351.003906 C617.95338,349.945958 617.688897,349.163088 617.159923,348.655273 C616.630949,348.147458 615.879817,347.893555 614.906505,347.893555 C613.848557,347.893555 612.949315,348.263831 612.208751,349.004395 C611.468188,349.744958 611.097911,350.686518 611.097911,351.829102 L611.097911,366.365234 C611.097911,366.619142 611.066174,366.788411 611.002697,366.873047 C610.93922,366.957683 610.759371,367 610.463146,367 L600.306896,367 Z M633.695568,339.387695 C633.695568,339.133788 633.727306,338.964519 633.790783,338.879883 C633.854259,338.795247 634.034108,338.75293 634.330333,338.75293 L644.486583,338.75293 C644.782809,338.75293 644.962657,338.795247 645.026134,338.879883 C645.089611,338.964519 645.121349,339.133788 645.121349,339.387695 L645.121349,366.365234 C645.121349,366.619142 645.089611,366.788411 645.026134,366.873047 C644.962657,366.957683 644.782809,367 644.486583,367 L634.330333,367 C634.034108,367 633.854259,366.957683 633.790783,366.873047 C633.727306,366.788411 633.695568,366.619142 633.695568,366.365234 L633.695568,339.387695 Z M639.408458,333.928711 C638.604418,333.928711 637.842707,333.7806 637.123302,333.484375 C636.403897,333.18815 635.769138,332.775556 635.219005,332.246582 C634.668872,331.717608 634.23512,331.082849 633.917736,330.342285 C633.600351,329.601722 633.441661,328.787114 633.441661,327.898438 C633.441661,326.205721 634.002365,324.766933 635.12379,323.582031 C636.245215,322.397129 637.673424,321.804688 639.408458,321.804688 C640.254817,321.804688 641.048266,321.973957 641.788829,322.3125 C642.529393,322.651043 643.164152,323.095375 643.693126,323.645508 C644.2221,324.195641 644.634694,324.8304 644.930919,325.549805 C645.227145,326.269209 645.375255,327.03092 645.375255,327.834961 C645.375255,328.639001 645.216565,329.411292 644.899181,330.151855 C644.581797,330.892419 644.158624,331.537758 643.62965,332.087891 C643.100676,332.638024 642.465916,333.082355 641.725353,333.420898 C640.984789,333.759442 640.212499,333.928711 639.408458,333.928711 Z M648.61256,352.844727 C648.61256,350.686513 649.014574,348.6976 649.818615,346.87793 C650.622655,345.058259 651.712325,343.49252 653.087658,342.180664 C654.46299,340.868809 656.092205,339.842614 657.975353,339.102051 C659.8585,338.361487 661.879151,337.991211 664.037365,337.991211 C666.195579,337.991211 668.216229,338.361487 670.099376,339.102051 C671.982524,339.842614 673.611739,340.868809 674.987072,342.180664 C676.362404,343.49252 677.441495,345.058259 678.224376,346.87793 C679.007258,348.6976 679.398693,350.686513 679.398693,352.844727 C679.398693,355.00294 679.007258,356.991853 678.224376,358.811523 C677.441495,360.631194 676.362404,362.207513 674.987072,363.540527 C673.611739,364.873542 671.982524,365.910315 670.099376,366.650879 C668.216229,367.391443 666.195579,367.761719 664.037365,367.761719 C661.879151,367.761719 659.8585,367.391443 657.975353,366.650879 C656.092205,365.910315 654.46299,364.873542 653.087658,363.540527 C651.712325,362.207513 650.622655,360.631194 649.818615,358.811523 C649.014574,356.991853 648.61256,355.00294 648.61256,352.844727 Z M659.213146,352.844727 C659.213146,354.325854 659.604581,355.595372 660.387462,356.65332 C661.170344,357.711268 662.386966,358.240234 664.037365,358.240234 C665.687763,358.240234 666.904385,357.711268 667.687267,356.65332 C668.470148,355.595372 668.861583,354.325854 668.861583,352.844727 C668.861583,351.490553 668.470148,350.263352 667.687267,349.163086 C666.904385,348.06282 665.687763,347.512695 664.037365,347.512695 C662.386966,347.512695 661.170344,348.06282 660.387462,349.163086 C659.604581,350.263352 659.213146,351.490553 659.213146,352.844727 Z M683.524669,367 C683.228444,367 683.048595,366.957683 682.985118,366.873047 C682.921642,366.788411 682.889904,366.619142 682.889904,366.365234 L682.889904,339.387695 C682.889904,339.133788 682.921642,338.964519 682.985118,338.879883 C683.048595,338.795247 683.228444,338.75293 683.524669,338.75293 L693.680919,338.75293 C693.977145,338.75293 694.156993,338.795247 694.22047,338.879883 C694.283947,338.964519 694.315685,339.133788 694.315685,339.387695 L694.315685,341.926758 C694.315685,342.011394 694.400319,342.053711 694.569591,342.053711 C694.696545,342.053711 694.781179,342.032552 694.823497,341.990234 C696.050717,340.847651 697.330815,339.91667 698.663829,339.197266 C699.996844,338.477861 701.636639,338.118164 703.583263,338.118164 C705.318298,338.118164 706.757085,338.382647 707.899669,338.911621 C709.042253,339.440595 709.962654,340.181148 710.6609,341.133301 C711.359145,342.085454 711.856374,343.217441 712.152599,344.529297 C712.448824,345.841152 712.596935,347.27994 712.596935,348.845703 L712.596935,366.365234 C712.596935,366.619142 712.565197,366.788411 712.50172,366.873047 C712.438243,366.957683 712.258395,367 711.962169,367 L701.805919,367 C701.509694,367 701.329845,366.957683 701.266368,366.873047 C701.202892,366.788411 701.171154,366.619142 701.171154,366.365234 L701.171154,351.003906 C701.171154,349.945958 700.906671,349.163088 700.377697,348.655273 C699.848723,348.147458 699.097591,347.893555 698.124279,347.893555 C697.066331,347.893555 696.167088,348.263831 695.426525,349.004395 C694.685961,349.744958 694.315685,350.686518 694.315685,351.829102 L694.315685,366.365234 C694.315685,366.619142 694.283947,366.788411 694.22047,366.873047 C694.156993,366.957683 693.977145,367 693.680919,367 L683.524669,367 Z" id="Universal-Users-Unio" fill="#9ACEDC"></path>
                <polygon id="Path-3" fill="#F6F6F6" points="554.08905 76.4889665 599.332358 11.9893447 663.109663 105.677138 620.230301 76.4889665 608.599357 95.4662032 582.636987 76.4889665 543.232031 95.4662032"></polygon>
                <polygon id="Path-3-Copy" fill="#F6F6F6" points="214.08905 76.4889665 259.332358 11.9893447 323.109663 105.677138 280.230301 76.4889665 268.599357 95.4662032 242.636987 76.4889665 204.254458 95.4662032"></polygon>
            </g>
        </g>
    </g>
</svg>